# xmcd CD database file
#
# Track frame offsets:
#	183
#	12930
#	22850
#	35075
#	47408
#	59768
#	72950
#	85138
#	97618
#	109283
#	122555
#	134438
#	145498
#	157745
#	170058
#	181543
#	193538
#	207263
#	218278
#	230635
#
# Disc length: 3228 seconds
#
# Revision: 0
# Processed by: cddbd v1.5.1PL0 Copyright (c) Steve Scherf et al.
# Submitted via: CDex 1.51
#
DISCID=0a0c9a14
DTITLE=Hank Williams - Collection
DYEAR=1990
DGENRE=Country
TTITLE0=I'm So Lonesome I Could Cry
TTITLE1=Honky Tonk Blues
TTITLE2=Your Cheatin' Heart
TTITLE3=Lovesick Blues
TTITLE4=Half As Much
TTITLE5=Hey Good Lookin'
TTITLE6=Lost Highway
TTITLE7=Move It On Over
TTITLE8=Kaw-Liga
TTITLE9=Jambalaya (On The Bayou)
TTITLE10=Take These Chains From My Heart
TTITLE11=I'll Never Get Out Of This World Alive
TTITLE12=I'm Sorry For You My Friend
TTITLE13=Cold Cold Heart
TTITLE14=My Bucket's Got A Hole In It
TTITLE15=Long Gone Lonesome Blues
TTITLE16=Ramblin' Man
TTITLE17=I Heard That Lonesome Whistle
TTITLE18=Howlin' At The Moon
TTITLE19=My Son Calls Another Man Daddy
EXTD=YEAR: 1990
EXTT0=
EXTT1=
EXTT2=
EXTT3=
EXTT4=
EXTT5=
EXTT6=
EXTT7=
EXTT8=
EXTT9=
EXTT10=
EXTT11=
EXTT12=
EXTT13=
EXTT14=
EXTT15=
EXTT16=
EXTT17=
EXTT18=
EXTT19=
PLAYORDER=
